<svg xmlns="http://www.w3.org/2000/svg" version="1.1" xmlns:xlink="http://www.w3.org/1999/xlink" xmlns:svgjs="http://svgjs.dev/svgjs" width="1000" height="1000" viewBox="0 0 1000 1000"><rect width="1000" height="1000" fill="#3f0071"></rect><g transform="matrix(0.7,0,0,0.7,149.57575757575756,388.11664203718067)"><svg viewBox="0 0 396 127" data-background-color="#3f0071" preserveAspectRatio="xMidYMid meet" height="320" width="1000" xmlns="http://www.w3.org/2000/svg" xmlns:xlink="http://www.w3.org/1999/xlink"><defs></defs><g id="tight-bounds" transform="matrix(1,0,0,1,0.2400000000000091,-0.06613186929439507)"><svg viewBox="0 0 395.52 127.1322637385888" height="127.1322637385888" width="395.52"><g><svg viewBox="0 0 634.1897893766436 203.8480571484414" height="127.1322637385888" width="395.52"><g transform="matrix(1,0,0,1,0,28.172922514726707)"><svg viewBox="0 0 395.52000000000004 147.50221211898798" height="147.50221211898798" width="395.52000000000004"><g><svg viewBox="0 0 395.52000000000004 147.50221211898798" height="147.50221211898798" width="395.52000000000004"><g><svg viewBox="0 0 395.52000000000004 147.50221211898798" height="147.50221211898798" width="395.52000000000004"><g transform="matrix(1,0,0,1,0,0)"><svg width="395.52000000000004" viewBox="2.5 -34.95 139.6937037037037 52.1" height="147.50221211898798" data-palette-color="#ea047e"><path d="M10.65-18.15Q10.65-18.15 11.2-16.5L11.2-16.5 11.85-14.6 14.6-20.1Q15.8-22.7 17-24.55 18.2-26.4 20.2-28.75L20.2-28.75Q20.8-29.45 21.58-29.83 22.35-30.2 23.15-30.2L23.15-30.2Q24.25-30.2 25.23-29.55 26.2-28.9 26.7-27.7L26.7-27.7Q26.85-27.3 27.2-26.6L27.2-26.6Q27.8-25.25 28.05-24.38 28.3-23.5 28.35-22.15L28.35-22.15Q28.4-20.15 28.75-17L28.75-17 29-14.1Q30.05-15 30.65-15.93 31.25-16.85 31.6-17.95L31.6-17.95Q32.3-19.8 33.15-22.5L33.15-22.5 34.65-27Q35.45-29.3 36.68-30.7 37.9-32.1 40-32.5L40-32.5Q40.4-32.6 40.9-32.6L40.9-32.6Q41.3-32.6 41.45-32.45 41.6-32.3 41.75-31.93 41.9-31.55 42.15-31.1L42.15-31.1Q42.7-30.15 42.7-29.4L42.7-29.4Q42.7-28.35 41.6-27.25L41.6-27.25Q39.95-25.65 39.08-23.75 38.2-21.85 37.1-18.65L37.1-18.65Q36.65-17.3 35.65-13.9L35.65-13.9Q34.3-9 33.4-6.8L33.4-6.8Q32.85-5.45 32.43-4.93 32-4.4 31.4-4.4L31.4-4.4Q30.75-4.4 29.2-5.25L29.2-5.25Q26.65-6.65 25.15-9.78 23.65-12.9 23.35-16.3L23.35-16.3 23.3-17.4Q23.1-20.1 22.9-22.1L22.9-22.1Q21.85-20.9 21.03-19.4 20.2-17.9 19.1-15.7L19.1-15.7Q18.2-13.8 17.95-13.35L17.95-13.35Q17.1-11.9 15.7-8.15L15.7-8.15Q14.35-4.65 13.85-3.75L13.85-3.75Q13.05-3.6 12.35-3.6L12.35-3.6Q10.85-3.6 9.95-4.5 9.05-5.4 8.45-7.4L8.45-7.4Q7.3-11.15 6.18-15.55 5.05-19.95 4.5-23.4L4.5-23.4Q4.35-24.4 3.95-25.55 3.55-26.7 3.45-27L3.45-27 2.95-28.45Q2.5-29.75 2.5-30.35L2.5-30.35Q2.5-30.9 2.88-31.35 3.25-31.8 4.15-32.45L4.15-32.45Q7.65-31.45 8.5-27.75L8.5-27.75Q8.9-26.15 9.6-22.95L9.6-22.95 10.65-18.15ZM55-7.8Q54.5-7.5 53.55-7.5L53.55-7.5Q53.2-7.5 52.7-7.55 52.2-7.6 51.85-7.55L51.85-7.55Q52.25-5.9 53.75-4.88 55.25-3.85 57.1-3.85L57.1-3.85Q58.7-3.85 59.95-4.55L59.95-4.55Q61.8-5.5 63.15-6.8L63.15-6.8Q64.1-7.75 64.95-7.75L64.95-7.75Q65.5-7.75 65.9-7.2L65.9-7.2Q66.3-6.55 66.3-5.6L66.3-5.6Q66.3-4.6 65.9-4.05L65.9-4.05Q64.6-2.05 62.52-1.3 60.45-0.55 57.7-0.55L57.7-0.55Q54.85-0.55 52.2-1.8 49.55-3.05 47.67-5.23 45.8-7.4 45.2-10.05L45.2-10.05Q44.8-11.6 44.8-13.1L44.8-13.1Q44.8-15.45 46.12-16.9 47.45-18.35 50.4-19.65L50.4-19.65Q53.1-20.8 55.4-20.8L55.4-20.8Q57.05-20.8 58.6-20.3L58.6-20.3Q63.4-18.8 63.4-16.2L63.4-16.2Q63.4-14.55 61.45-12.2L61.45-12.2Q60.5-11.1 59.2-10.25 57.9-9.4 56.67-8.72 55.45-8.05 55-7.8L55-7.8ZM57.1-17.05Q57.05-17.3 56.72-17.48 56.4-17.65 56.35-17.7L56.35-17.7Q55-17.8 53.6-16.93 52.2-16.05 51.27-14.7 50.35-13.35 50.35-12.1L50.35-12.1 50.4-11.7Q50.45-11.5 50.92-11.2 51.4-10.9 51.5-11L51.5-11Q55.05-13.65 56.85-15.25L56.85-15.25Q57.15-15.55 57.15-16.35L57.15-16.35Q57.15-16.85 57.1-17.05L57.1-17.05ZM81.35-4Q79.85-2.4 78.1-2.4L78.1-2.4Q76.65-2.4 75.05-3.35L75.05-3.35 74.9 1.2Q74.65 6.2 74.65 9.9L74.65 9.9Q74.65 10.6 74.75 12.1L74.75 12.1Q74.85 13.6 74.85 14.3L74.85 14.3Q74.85 15.05 74.8 15.4L74.8 15.4Q74.75 15.85 74.2 16.38 73.65 16.9 73.1 17.05L73.1 17.05Q72.7 17.15 72.55 17.15L72.55 17.15Q71.4 17.15 70.32 16.15 69.25 15.15 69.3 14.05L69.3 14.05Q69.4 10.3 69.7 3.2L69.7 3.2 70.05-7.7Q70.15-10.7 69.7-12.75L69.7-12.75Q69.6-13.35 69.6-13.55L69.6-13.55Q69.6-14.35 70.07-14.8 70.55-15.25 71.35-15.35L71.35-15.35Q72.6-15.45 73.35-16.03 74.1-16.6 75.1-17.85L75.1-17.85Q76.9-20.1 79.05-20.1L79.05-20.1Q81.45-20.1 84.5-17.15L84.5-17.15Q85.9-15.8 85.9-13.5L85.9-13.5Q85.9-12.65 85.75-11.8L85.75-11.8Q85.4-9.7 84.27-7.9 83.15-6.1 81.35-4L81.35-4ZM76.7-12.35Q75.6-9.35 75.6-7L75.6-7Q75.6-6.45 75.65-6.2L75.65-6.2 76.25-5.9Q77.25-6.2 78.35-7.65 79.45-9.1 80.17-10.93 80.9-12.75 80.9-14.15L80.9-14.15Q80.9-14.75 80.65-15.35L80.65-15.35Q80.3-16 79.6-16L79.6-16Q78.7-16 78.3-15.35L78.3-15.35Q78.15-15.15 77.6-14.25 77.05-13.35 76.7-12.35L76.7-12.35ZM96.64-2.3Q97.64-3.5 98.09-4.2L98.09-4.2Q98.64-4.95 99.24-4.95L99.24-4.95Q99.84-4.95 100.14-4.2L100.14-4.2Q100.84-2.2 100.84-1.05L100.84-1.05Q100.84-0.55 100.79-0.3L100.79-0.3Q100.59 0.7 99.67 1.1 98.74 1.5 97.49 1.4L97.49 1.4Q97.04 1.4 95.97 1.4 94.89 1.4 94.12 1.1 93.34 0.8 92.74 0.1L92.74 0.1Q91.44-1.45 91.44-2.9L91.44-2.9Q91.44-14.6 91.34-20.5L91.34-20.5 91.29-29.3Q91.29-31.05 90.94-32.5L90.94-32.5Q90.89-32.75 90.89-33.1L90.89-33.1Q90.89-34.95 93.39-34.95L93.39-34.95Q95.04-34.95 96.17-33.88 97.29-32.8 97.19-31.05L97.19-31.05Q97.04-28.4 96.79-23.1L96.79-23.1 96.49-17.1Q96.09-8.6 95.94-4.35L95.94-4.35Q95.89-3.85 95.99-3.25 96.09-2.65 96.14-2.5L96.14-2.5 96.64-2.3ZM119.64-2.55Q119.19-2.75 118.74-2.75L118.74-2.75Q118.29-2.75 117.97-2.53 117.64-2.3 117.24-1.85L117.24-1.85Q116.64-1.25 115.99-0.85L115.99-0.85Q115.39-0.5 113.79-0.2L113.79-0.2Q113.09-0.1 112.64-0.1L112.64-0.1Q110.54-0.1 108.27-1.03 105.99-1.95 105.04-3.25L105.04-3.25Q104.04-4.65 104.09-6.25L104.09-6.25Q104.14-8.65 106.09-11.05L106.09-11.05Q107.99-13.35 109.57-14.3 111.14-15.25 113.89-15.5L113.89-15.5Q114.49-15.5 115.62-15.7 116.74-15.9 116.74-16.25L116.74-16.25Q116.74-16.95 116.12-17.53 115.49-18.1 113.59-18.1L113.59-18.1Q112.89-18.1 111.49-18L111.49-18Q110.09-17.9 109.54-17.9L109.54-17.9Q107.84-17.9 107.09-18.45L107.09-18.45Q106.89-18.55 106.89-19.4L106.89-19.4Q106.89-20.9 107.94-21.3L107.94-21.3Q110.09-22.1 112.39-22.15L112.39-22.15Q115.29-22.15 117.77-20.88 120.24-19.6 121.39-17.7L121.39-17.7Q122.54-15.8 122.89-12.45L122.89-12.45Q123.29-8.7 123.29-2.9L123.29-2.9Q123.29-1.3 122.84-1.05L122.84-1.05Q122.44-0.8 122.09-0.8L122.09-0.8Q121.64-0.8 121.27-1.07 120.89-1.35 120.44-1.85L120.44-1.85Q119.99-2.4 119.64-2.55L119.64-2.55ZM111.74-3.15Q114.09-3.85 116.34-5.4L116.34-5.4Q116.84-5.75 117.24-6.3 117.64-6.85 117.74-7L117.74-7Q117.84-7.15 117.92-7.88 117.99-8.6 117.94-9.05L117.94-9.05Q117.89-9.2 117.77-9.85 117.64-10.5 117.39-11L117.39-11Q117.14-11.4 116.59-11.75 116.04-12.1 115.59-12.05L115.59-12.05Q114.64-12 113.54-11.35 112.44-10.7 111.49-9.6L111.49-9.6Q110.54-8.45 110.02-7.28 109.49-6.1 109.49-5.1L109.49-5.1Q109.59-3.75 110.24-3.3L110.24-3.3Q110.59-3.05 111.09-3.05L111.09-3.05Q111.49-3.05 111.74-3.15L111.74-3.15ZM126.19 14.1Q126.54 14 127.09 13.83 127.64 13.65 128.04 13.6L128.04 13.6Q131.64 13.5 133.31 12.1 134.99 10.7 135.44 7.15L135.44 7.15Q135.89 3.6 136.34-3.5L136.34-3.5 136.54-6.7Q136.59-7.85 136.11-8.47 135.64-9.1 134.39-9.25L134.39-9.25Q131.69-9.55 129.71-11.35 127.74-13.15 126.99-15.9L126.99-15.9Q126.74-16.75 126.44-17.9L126.44-17.9Q125.84-20.1 125.59-21.2L125.59-21.2 125.59-21.3Q125.59-21.6 125.79-21.98 125.99-22.35 126.19-22.5L126.19-22.5Q126.99-23.05 128.04-23.05L128.04-23.05Q129.44-23.05 130.54-22.08 131.64-21.1 131.79-19.65L131.79-19.65Q132.04-17.4 132.64-14.75L132.64-14.75Q132.89-13.7 133.59-13.7L133.59-13.7Q134.14-13.7 134.54-14.25L134.54-14.25Q135.84-15.9 136.54-17.45L136.54-17.45Q137.39-19.35 139.04-19.35L139.04-19.35Q139.49-19.35 139.69-19.3L139.69-19.3Q142.29-18.8 142.19-16.1L142.19-16.1 142.04-11.45Q141.84-5.25 141.59-2.2L141.59-2.2 141.44-0.2Q141.14 3.9 140.86 6.18 140.59 8.45 139.99 10.75L139.99 10.75Q139.24 13.65 137.24 15.08 135.24 16.5 132.54 16.5L132.54 16.5Q130.39 16.5 128.24 15.65L128.24 15.65Q127.79 15.45 127.19 15.13 126.59 14.8 126.29 14.6L126.29 14.6 126.19 14.1Z" opacity="1" transform="matrix(1,0,0,1,0,0)" fill="#ea047e" class="undefined-text-0" data-fill-palette-color="primary" id="text-0"></path></svg></g></svg></g></svg></g></svg></g><g transform="matrix(1,0,0,1,430.34173222820226,0)"><svg viewBox="0 0 203.8480571484414 203.8480571484414" height="203.8480571484414" width="203.8480571484414"><g data-palette-color="#c31d75"><rect width="55.71846895390731" height="203.8480571484414" fill="#c31d75" stroke="transparent" data-fill-palette-color="accent" x="0" fill-opacity="1"></rect><rect width="55.71846895390731" height="203.8480571484414" fill="#c31d75" stroke="transparent" data-fill-palette-color="accent" x="67.9493523828138" fill-opacity="0.75"></rect><rect width="55.71846895390731" height="203.8480571484414" fill="#c31d75" stroke="transparent" data-fill-palette-color="accent" x="135.8987047656276" fill-opacity="0.5"></rect></g></svg></g></svg></g></svg><rect width="395.52" height="127.1322637385888" fill="none" stroke="none" visibility="hidden"></rect></g></svg></g></svg>